<svg xmlns="http://www.w3.org/2000/svg" viewBox="0 0 100 120" width="100%" height="100%">
  <defs>
    <filter id="shadow" x="-20%" y="-20%" width="140%" height="140%">
      <feDropShadow dx="0" dy="3" stdDeviation="3.5" flood-color="#000000" flood-opacity="0.12"/>
    </filter>
  </defs>
  
  <g filter="url(#shadow)" fill="#ffffff">
    <circle cx="80" cy="15" r="10" />
    
    <path d="
      M 70 35
      L 90 35
      L 90 75
      A 40 40 0 0 1 50 115
      A 40 40 0 0 1 10 75
      A 40 40 0 0 1 50 35
      A 40 40 0 0 1 60 36.27
      L 60 57.68
      A 20 20 0 0 0 50 55
      A 20 20 0 0 0 30 75
      A 20 20 0 0 0 50 95
      A 20 20 0 0 0 70 75
      L 70 35
      Z" 
    />
  </g>
</svg>